<?xml version="1.0" encoding="UTF-8" standalone="no"?>
<!-- Created with Inkscape (http://www.inkscape.org/) -->

<svg
   xmlns:dc="http://purl.org/dc/elements/1.1/"
   xmlns:cc="http://creativecommons.org/ns#"
   xmlns:rdf="http://www.w3.org/1999/02/22-rdf-syntax-ns#"
   xmlns:svg="http://www.w3.org/2000/svg"
   xmlns="http://www.w3.org/2000/svg"
   xmlns:sodipodi="http://sodipodi.sourceforge.net/DTD/sodipodi-0.dtd"
   xmlns:inkscape="http://www.inkscape.org/namespaces/inkscape"
   version="1.1"
   id="svg2"
   xml:space="preserve"
   width="63.200562"
   height="54.774933"
   viewBox="0 0 63.200562 54.774933"
   sodipodi:docname="HEIA-FR-ISC-light-black_zm.svg"
   inkscape:version="0.92.2 5c3e80d, 2017-08-06"><metadata
     id="metadata8"><rdf:RDF><cc:Work
         rdf:about=""><dc:format>image/svg+xml</dc:format><dc:type
           rdf:resource="http://purl.org/dc/dcmitype/StillImage" /><dc:title></dc:title></cc:Work></rdf:RDF></metadata><defs
     id="defs6" /><sodipodi:namedview
     pagecolor="#ffffff"
     bordercolor="#666666"
     borderopacity="1"
     objecttolerance="10"
     gridtolerance="10"
     guidetolerance="10"
     inkscape:pageopacity="0"
     inkscape:pageshadow="2"
     inkscape:window-width="1219"
     inkscape:window-height="812"
     id="namedview4"
     showgrid="false"
     inkscape:zoom="2.4975307"
     inkscape:cx="-87.599408"
     inkscape:cy="29.322133"
     inkscape:window-x="0"
     inkscape:window-y="69"
     inkscape:window-maximized="0"
     inkscape:current-layer="g10"
     fit-margin-top="0"
     fit-margin-left="0"
     fit-margin-right="0"
     fit-margin-bottom="0" /><g
     id="g10"
     inkscape:groupmode="layer"
     inkscape:label="ink_ext_XXXXXX"
     transform="matrix(1.3333333,0,0,-1.3333333,-16.329013,72.699465)"><path
       inkscape:connector-curvature="0"
       id="path18"
       style="fill:#0f0f0f;fill-opacity:1;fill-rule:nonzero;stroke:none;stroke-width:0.1"
       d="m 46.9137,34.5039 c 0,-0.6691 -0.5442,-1.2129 -1.2129,-1.2129 H 28.4984 c -0.0086,8e-4 -0.0156,0.0047 -0.0242,0.0047 h -9.3234 c -0.6582,0.0137 -1.1895,0.5481 -1.1895,1.2082 v 1.8734 h 26.0832 c 0.2207,0 0.4004,0.1793 0.4004,0.4 0,0.2207 -0.1797,0.3997 -0.4004,0.3997 H 17.9613 v 15.3339 c 0,0.6696 0.5442,1.2141 1.2141,1.2141 h 26.5254 c 0.6687,0 1.2129,-0.5445 1.2129,-1.2141 z M 45.7008,54.5246 H 19.1754 c -1.1106,0 -2.0149,-0.9031 -2.0149,-2.0137 v -18.007 c 0,-0.4961 0.1875,-0.9453 0.4864,-1.2969 -0.3817,-0.1086 -0.7207,-0.3136 -0.9531,-0.6086 L 12.566,27.3555 c -0.3976,-0.5051 -0.4258,-1.1719 -0.0734,-1.6992 0.3262,-0.4934 0.9402,-0.8 1.6183,-0.8 l 15.7618,-0.0079 c 0.2207,0 0.3992,0.1797 0.4003,0.4004 0,0.2207 -0.1796,0.3996 -0.4003,0.4004 L 14.0934,25.657 c -0.3899,0 -0.7571,0.1731 -0.9348,0.4414 -0.1621,0.2434 -0.1484,0.5274 0.0363,0.7629 l 4.1278,5.243 c 0.1894,0.2414 0.5343,0.3906 0.8984,0.3906 h 0.9062 c 0.0168,0 0.0313,-0.0047 0.0481,-0.0047 h 26.5254 c 1.1101,0 2.0137,0.9032 2.0137,2.0137 v 18.007 c 0,1.1106 -0.9036,2.0137 -2.0137,2.0137" /><path
       inkscape:connector-curvature="0"
       id="path20"
       style="fill:#070000;fill-opacity:1;fill-rule:nonzero;stroke:none;stroke-width:0.1"
       d="m 27.0445,45.3891 c -1.0742,0 -1.9484,-0.8743 -1.9484,-1.9485 0,-1.0742 0.8742,-1.948 1.9484,-1.948 H 37.693 c 1.0742,0 1.948,0.8738 1.948,1.948 0,0.9524 -0.7097,1.7789 -1.6512,1.9231 -0.1093,0.0172 -0.207,0.0781 -0.2695,0.1699 -0.0625,0.0918 -0.0851,0.2051 -0.0605,0.3129 0.0554,0.2461 0.0828,0.4894 0.0828,0.7242 0,1.8121 -1.4735,3.2859 -3.286,3.2859 -1.3418,0 -2.5371,-0.8046 -3.0441,-2.0492 -0.0809,-0.2008 -0.3055,-0.3019 -0.5105,-0.2234 -0.2239,0.084 -0.4543,0.1262 -0.6836,0.1262 -1.0743,0 -1.9473,-0.8739 -1.9473,-1.9481 0,-0.1312 -0.0625,-0.3187 -0.1711,-0.3937 -0.1082,-0.0735 -0.241,-0.1547 -0.366,-0.1079 -0.2238,0.0852 -0.4563,0.1286 -0.6895,0.1286 z M 37.693,40.693 H 27.0445 c -1.516,0 -2.7492,1.2328 -2.7492,2.7476 0,1.5153 1.2332,2.7485 2.7492,2.7485 0.1524,0 0.3035,-0.0129 0.4532,-0.0383 0.1894,1.3316 1.3378,2.3594 2.7207,2.3594 0.2031,0 0.4062,-0.0231 0.6062,-0.0696 0.6965,1.3574 2.0859,2.216 3.632,2.216 2.2528,0 4.0868,-1.8332 4.0868,-4.0859 0,-0.1664 -0.0118,-0.3363 -0.0332,-0.5074 1.1394,-0.3492 1.9316,-1.3953 1.9316,-2.6227 0,-1.5148 -1.2332,-2.7476 -2.7488,-2.7476" /><path
       inkscape:connector-curvature="0"
       id="path22"
       style="fill:#000000;fill-opacity:1;fill-rule:nonzero;stroke:none;stroke-width:0.1"
       d="m 52.2152,19.3672 c -0.125,0 -0.2492,0.0594 -0.3269,0.1699 -0.127,0.1805 -0.084,0.4297 0.0965,0.5574 1.8632,1.3137 2.9953,3.4504 3.0273,5.7149 0.0332,2.2656 -1.0371,4.4336 -2.8613,5.7988 -0.1778,0.1328 -0.2129,0.3828 -0.0809,0.5598 0.1336,0.1785 0.3848,0.2129 0.5594,0.0808 2.0293,-1.5183 3.2199,-3.9304 3.1836,-6.4511 -0.0371,-2.5196 -1.2949,-4.8965 -3.3672,-6.3575 -0.0703,-0.0488 -0.1504,-0.073 -0.2305,-0.073" /><path
       inkscape:connector-curvature="0"
       id="path24"
       style="fill:#000000;fill-opacity:1;fill-rule:nonzero;stroke:none;stroke-width:0.1"
       d="m 54.7203,16.8516 c -0.125,0 -0.2492,0.0593 -0.3273,0.1699 -0.127,0.1805 -0.084,0.4297 0.0968,0.5574 2.6805,1.8899 4.3094,4.9629 4.3555,8.2219 0.0469,3.2586 -1.4922,6.3777 -4.1164,8.3418 -0.1777,0.1328 -0.2129,0.3828 -0.0809,0.5594 0.1329,0.1789 0.3848,0.2125 0.5594,0.0812 2.8293,-2.1172 4.4883,-5.4797 4.4387,-8.9941 -0.0508,-3.5137 -1.8059,-6.8274 -4.6953,-8.8645 -0.0703,-0.0488 -0.1504,-0.073 -0.2305,-0.073" /><path
       inkscape:connector-curvature="0"
       id="path26"
       style="fill:#000000;fill-opacity:1;fill-rule:nonzero;stroke:none;stroke-width:0.1"
       d="m 49.9105,21.7637 c -0.1414,0 -0.2792,0.0761 -0.3515,0.2097 -0.1055,0.1946 -0.0332,0.4375 0.1613,0.5422 1.2313,0.666 2.0098,1.9453 2.0293,3.3399 0.0203,1.3953 -0.7199,2.6972 -1.9316,3.3953 -0.1914,0.1105 -0.2571,0.3555 -0.1465,0.5469 0.1113,0.1914 0.3555,0.2558 0.5469,0.1464 1.4617,-0.8437 2.3554,-2.4148 2.332,-4.1003 -0.0258,-1.6836 -0.9641,-3.2286 -2.4492,-4.0313 -0.0606,-0.0332 -0.1262,-0.0488 -0.1907,-0.0488" /><path
       inkscape:connector-curvature="0"
       id="path28"
       style="fill:#000000;fill-opacity:1;fill-rule:nonzero;stroke:none;stroke-width:0.1"
       d="m 46.9859,27.4969 c -0.0078,0 -0.0148,0 -0.0226,0 -0.8563,0 -1.5598,-0.6903 -1.5731,-1.5496 -0.0117,-0.8672 0.6836,-1.5821 1.5508,-1.5957 0.0078,0 0.0145,0 0.0223,0 0.8566,0 1.5597,0.6914 1.5734,1.5507 0.0117,0.8661 -0.6836,1.5809 -1.5508,1.5946" /><path
       inkscape:connector-curvature="0"
       id="path30"
       style="fill:#050505;fill-opacity:1;fill-rule:nonzero;stroke:none;stroke-width:0.1"
       d="m 42.482,14.5234 c 0,-0.1543 -0.125,-0.2793 -0.2793,-0.2793 H 34.348 c -0.1542,0 -0.2792,0.125 -0.2792,0.2793 v 1.2227 h 5.873 c 0.2207,0 0.4004,0.1797 0.4004,0.4004 0,0.2207 -0.1797,0.4004 -0.4004,0.4004 h -5.873 v 12.5136 c 0,0.1543 0.125,0.2793 0.2792,0.2793 h 7.8547 c 0.1543,0 0.2793,-0.125 0.2793,-0.2793 z M 42.2027,30.1406 H 34.348 c -0.5957,0 -1.08,-0.4843 -1.08,-1.0801 V 14.5234 c 0,-0.5957 0.4843,-1.08 1.08,-1.08 h 7.8547 c 0.5957,0 1.0801,0.4843 1.0801,1.08 v 14.5371 c 0,0.5958 -0.4844,1.0801 -1.0801,1.0801" /><path
       inkscape:connector-curvature="0"
       id="path32"
       style="fill:#000000;fill-opacity:1;fill-rule:nonzero;stroke:none;stroke-width:0.1"
       d="m 38.9184,27.166 h -1.2852 c -0.2207,0 -0.4004,0.1797 -0.4004,0.4004 0,0.2207 0.1797,0.4004 0.4004,0.4004 h 1.2852 c 0.2207,0 0.4004,-0.1797 0.4004,-0.4004 0,-0.2207 -0.1797,-0.4004 -0.4004,-0.4004" /></g></svg>